<svg version="1.0" xmlns="http://www.w3.org/2000/svg"  width="270.000000pt" height="270.000000pt" viewBox="0 0 270.000000 270.000000"  preserveAspectRatio="xMidYMid meet">  <g transform="translate(0.000000,270.000000) scale(0.100000,-0.100000)" fill="#000000" stroke="none"> <path d="M1340 2583 c0 -7 -7 -19 -16 -28 -13 -12 -14 -19 -5 -28 6 -6 11 -7 11 -1 0 5 4 16 9 23 8 12 13 11 29 -10 11 -13 23 -21 26 -18 3 3 -8 21 -24 39 -17 19 -30 29 -30 23z"/> <path d="M1336 2489 c-5 -28 -7 -29 -22 -14 -23 22 -67 15 -79 -12 -5 -13 -17 -23 -27 -23 -9 0 -24 -3 -34 -7 -11 -4 -15 -3 -11 4 7 11 -22 28 -31 18 -3 -3 1 -5 8 -5 7 0 10 -3 7 -6 -4 -4 -13 -1 -22 6 -12 10 -15 9 -16 -6 -1 -11 -3 -29 -4 -41 -1 -13 3 -23 9 -23 22 0 66 -25 66 -37 0 -6 6 -13 13 -16 6 -2 8 -8 4 -13 -5 -5 -19 4 -33 21 -33 42 -30 23 7 -42 18 -30 42 -83 54 -117 13 -34 28 -60 35 -58 6 1 10 -3 7 -10 -2 -7 0 -22 6 -33 10 -19 9 -19 -14 -2 -13 9 -33 21 -44 26 -60 26 -94 100 -90 191 2 36 1 57 -2 48 -7 -26 -23 -22 -18 4 3 12 -3 30 -11 39 -9 10 -13 23 -8 30 4 8 3 10 -4 5 -7 -4 -12 -3 -12 2 0 5 -9 12 -21 15 -12 3 -18 10 -15 15 7 11 -22 25 -35 16 -5 -3 8 -23 29 -45 20 -23 36 -44 35 -47 -1 -4 2 -11 7 -17 4 -5 11 -32 15 -60 4 -27 12 -56 17 -62 22 -27 -17 -12 -69 27 l-53 41 0 82 c0 58 -3 78 -10 67 -6 -8 -9 -36 -8 -62 1 -26 -1 -50 -4 -54 -4 -3 2 -20 12 -38 17 -32 17 -33 -1 -44 -10 -7 -22 -12 -26 -12 -5 0 -2 4 6 9 11 7 9 11 -8 20 -22 12 -30 47 -8 38 7 -3 13 5 13 19 1 13 -2 24 -7 24 -5 0 -9 5 -9 11 0 5 5 7 12 3 6 -4 8 -3 4 4 -4 8 -15 8 -36 0 -36 -12 -45 -25 -31 -42 7 -9 7 -16 -1 -24 -9 -9 -9 -12 0 -12 7 0 12 5 12 10 0 6 5 10 12 10 9 0 9 -3 0 -12 -16 -16 -82 -20 -98 -7 -8 7 -17 5 -27 -6 -14 -14 -16 -13 -22 4 -9 28 -33 34 -45 11 -6 -12 -7 -20 -1 -20 5 0 11 6 14 13 3 9 7 9 17 0 9 -9 8 -13 -8 -22 -10 -6 -23 -7 -27 -3 -5 4 -5 1 0 -7 4 -8 2 -17 -6 -22 -11 -6 -11 -11 -2 -20 17 -17 5 -43 -13 -28 -11 9 -14 8 -14 -4 0 -23 11 -47 22 -47 5 0 7 4 4 9 -3 5 1 11 8 14 11 4 13 0 11 -15 -3 -11 -7 -23 -10 -26 -8 -8 16 -32 26 -26 5 3 5 -6 -1 -20 -7 -19 -6 -25 2 -23 7 1 13 -7 15 -18 3 -12 1 -16 -4 -9 -4 6 -21 10 -36 10 -16 -1 -31 3 -34 8 -3 5 -1 6 5 2 7 -4 12 -2 12 3 0 18 -38 12 -43 -6 -4 -14 -5 -14 -6 3 0 12 -8 27 -16 34 -40 34 16 42 59 9 26 -21 37 -14 14 10 -7 6 -13 16 -13 20 0 5 -11 18 -25 29 l-25 20 24 26 c27 28 23 44 -6 27 -10 -6 -14 -11 -9 -11 6 0 2 -6 -9 -13 -13 -10 -16 -21 -11 -41 4 -16 11 -24 18 -20 7 4 8 3 4 -5 -4 -6 -12 -9 -17 -5 -18 11 -40 -16 -28 -37 7 -14 6 -19 -3 -19 -6 0 -3 -7 8 -15 17 -13 17 -14 2 -15 -9 0 -20 5 -23 10 -3 6 -17 10 -31 10 -14 0 -23 4 -20 9 11 17 -5 39 -25 34 -10 -3 -19 -10 -19 -15 0 -6 -7 -8 -15 -4 -8 3 -15 0 -15 -7 0 -7 -4 -6 -10 3 -7 12 -13 12 -27 4 -27 -17 -28 -43 -2 -53 l23 -8 -22 -12 c-12 -6 -22 -18 -22 -25 0 -17 -37 -28 -44 -12 -3 7 -5 6 -5 -2 -1 -7 4 -23 10 -34 8 -16 8 -23 -2 -30 -11 -6 -9 -8 6 -6 15 2 20 -3 20 -19 0 -11 3 -24 7 -28 9 -9 -9 -45 -31 -63 -14 -11 -14 -14 6 -28 13 -9 23 -22 23 -28 0 -6 -4 -5 -9 3 -8 12 -12 12 -25 -2 -9 -8 -16 -21 -16 -27 0 -6 -5 -8 -12 -4 -7 5 -8 3 -2 -7 14 -23 13 -40 -2 -46 -8 -3 -14 -18 -14 -34 0 -21 7 -32 28 -43 25 -14 25 -15 5 -16 -18 0 -21 -5 -18 -35 2 -19 -1 -32 -6 -29 -5 3 -6 -2 -2 -12 5 -14 7 -14 14 -1 7 12 14 13 34 4 14 -7 25 -15 25 -18 0 -11 -34 -21 -38 -11 -1 5 -13 7 -26 5 -25 -5 -42 -39 -22 -46 8 -3 8 -12 -1 -37 -11 -30 -10 -37 10 -69 12 -20 21 -37 19 -38 -9 -11 1 -31 13 -27 11 5 13 2 9 -9 -3 -9 -11 -14 -18 -11 -7 3 -13 -1 -13 -9 0 -17 42 -17 43 1 1 6 3 15 4 20 1 4 2 10 2 13 -1 3 5 6 13 6 13 0 10 -21 -6 -43 -5 -6 -6 -14 -2 -17 3 -4 -1 -7 -9 -7 -9 0 -19 -7 -22 -16 -3 -9 -11 -12 -18 -8 -10 6 -10 5 -1 -7 10 -12 10 -18 0 -28 -9 -10 -8 -11 5 -6 23 9 24 -28 3 -78 -18 -43 -18 -47 -5 -47 6 0 10 9 10 19 0 11 4 22 9 26 16 9 24 -15 11 -30 -9 -11 -9 -15 -1 -15 6 0 15 10 20 22 5 15 10 18 15 9 10 -16 -23 -53 -41 -46 -8 2 -12 1 -8 -4 3 -5 -1 -11 -7 -14 -8 -2 -9 -8 -4 -13 5 -5 11 -4 13 4 3 6 9 9 15 6 5 -3 15 2 23 12 13 18 15 18 50 0 25 -14 32 -22 23 -28 -7 -4 -9 -8 -4 -8 5 0 3 -6 -3 -14 -13 -15 -4 -49 11 -40 5 3 4 -4 -4 -15 -11 -18 -11 -23 2 -31 8 -5 15 -15 15 -22 1 -7 6 -12 13 -10 7 1 15 -5 18 -13 5 -13 9 -13 22 -3 13 11 14 11 7 -2 -8 -13 -7 -13 9 -1 15 13 19 13 26 0 6 -8 5 -18 0 -23 -16 -16 -11 -50 8 -66 45 -37 56 -45 48 -32 -5 8 1 19 14 30 20 17 23 16 81 -40 33 -32 64 -58 68 -58 26 0 11 22 -67 95 -86 82 -87 83 -67 102 19 18 20 18 85 -47 69 -69 190 -167 190 -153 -1 18 -29 45 -41 37 -8 -4 -10 -3 -5 4 11 17 22 15 48 -10 33 -33 35 -57 4 -51 -29 6 -44 -13 -16 -22 25 -8 26 -34 3 -41 -10 -3 -26 -10 -35 -15 -10 -5 -22 -9 -27 -9 -8 0 -147 103 -161 119 -3 3 -17 16 -31 29 -23 20 -27 21 -33 7 -3 -9 -2 -13 4 -10 5 3 21 -10 37 -30 15 -19 34 -35 41 -35 6 0 12 -4 12 -10 0 -5 -9 -10 -21 -10 -34 0 -58 -18 -80 -61 -31 -63 -24 -80 49 -116 2 0 5 -9 6 -19 2 -10 8 -20 14 -22 8 -2 10 3 6 13 -8 20 16 17 33 -5 8 -10 8 -19 1 -27 -6 -7 -7 -13 -3 -13 4 0 13 7 20 16 13 19 57 11 49 -9 -2 -7 7 -17 21 -23 15 -7 25 -8 27 -2 2 6 14 5 30 -2 15 -7 24 -18 22 -25 -3 -6 3 -18 13 -26 17 -13 17 -13 3 5 -14 18 -14 19 6 8 12 -6 24 -8 28 -5 8 9 57 13 52 5 -2 -4 12 -17 30 -29 26 -17 34 -19 34 -8 0 21 30 7 40 -19 9 -21 9 -21 9 1 1 12 -6 26 -13 30 -8 5 -22 24 -30 43 l-14 35 -7 -27 c-4 -15 -4 -31 -1 -36 4 -6 -3 -8 -15 -5 -15 4 -19 11 -15 27 4 11 12 42 18 68 6 28 17 48 25 48 16 0 17 -14 3 -41 -14 -25 2 -25 25 1 10 11 27 20 39 20 17 0 16 -4 -13 -28 l-32 -27 19 -42 c10 -24 21 -40 24 -37 3 3 5 -3 4 -13 -1 -13 5 -17 22 -16 12 2 22 -2 22 -8 0 -8 4 -8 13 -2 10 8 32 10 40 3 8 -7 49 -5 54 3 3 5 9 3 14 -4 7 -11 9 -11 9 2 0 26 31 33 37 9 7 -25 11 -25 47 -1 17 11 33 18 38 15 10 -6 10 17 2 68 -5 28 -11 38 -25 38 -34 0 -20 17 19 24 54 9 62 8 62 -9 0 -8 -7 -15 -16 -15 -14 0 -16 -8 -10 -55 6 -56 2 -62 -36 -56 -5 0 -8 -4 -8 -10 0 -6 6 -9 14 -6 8 3 16 1 18 -5 2 -6 17 2 33 17 17 16 25 25 18 21 -16 -9 -28 13 -14 27 6 6 11 19 11 29 0 10 7 18 15 18 8 0 15 -7 15 -16 0 -8 5 -12 10 -9 6 3 10 -4 10 -17 0 -13 7 -32 15 -42 15 -20 15 -20 30 0 8 10 15 28 15 38 0 20 0 20 15 0 12 -15 16 -16 24 -5 7 10 9 11 13 1 2 -8 12 -14 21 -16 20 -3 41 31 31 48 -5 7 -3 8 5 4 7 -5 10 -14 7 -22 -7 -17 6 -18 22 -2 9 9 12 8 12 -4 0 -9 5 -20 12 -24 7 -4 8 -3 4 5 -8 12 16 41 34 41 6 0 15 10 20 23 5 12 9 16 9 10 1 -15 57 -18 65 -4 3 5 16 7 29 4 16 -3 18 -2 9 5 -11 7 -8 15 12 37 14 15 23 31 20 36 -9 15 50 -13 64 -30 11 -14 12 -12 6 13 -5 21 -4 27 5 22 6 -4 14 0 17 8 3 9 10 14 14 11 5 -3 17 6 28 20 11 13 22 21 26 18 12 -12 6 6 -7 19 -21 23 -47 67 -47 82 0 16 -27 30 -52 27 -10 -1 -18 2 -18 6 0 16 35 38 55 36 11 -2 15 0 8 3 -16 7 15 59 44 75 13 7 23 16 23 21 0 5 5 6 11 2 8 -5 8 -1 0 14 -6 11 -11 25 -11 30 0 12 56 33 65 24 3 -4 3 1 -1 11 -4 12 -2 16 8 12 17 -7 42 43 42 84 1 23 6 27 44 32 23 3 48 11 55 18 9 10 8 11 -7 5 -14 -5 -17 -3 -14 7 3 8 14 13 24 12 10 -1 13 0 6 3 -6 3 -9 11 -6 16 5 7 2 8 -6 3 -10 -6 -12 -4 -7 7 3 9 1 20 -5 26 -6 6 -6 12 1 16 18 12 12 23 -14 30 -30 8 -33 26 -5 26 11 0 20 -4 20 -10 0 -5 7 -10 15 -10 8 0 12 -6 9 -14 -3 -7 2 -16 10 -19 9 -4 16 -2 16 3 0 6 -5 10 -11 10 -5 0 -8 4 -4 9 3 5 1 12 -5 16 -6 4 -5 11 4 20 8 8 12 27 10 45 -3 21 0 29 8 24 7 -4 8 -3 4 5 -6 9 -11 9 -22 0 -11 -9 -15 -8 -20 5 -3 9 -13 16 -22 16 -12 0 -13 3 -4 12 9 9 15 8 28 -8 8 -10 12 -13 8 -5 -6 11 -3 13 12 7 15 -6 17 -5 7 5 -19 19 -16 33 4 18 13 -11 13 -8 -2 13 -11 15 -26 28 -34 28 -8 0 2 17 23 40 37 42 45 65 24 73 -10 3 -10 9 0 26 16 28 15 34 -8 61 -16 18 -20 20 -20 7 0 -11 -8 -17 -22 -16 -21 0 -21 1 -4 8 16 6 17 9 4 13 -8 4 -21 2 -29 -3 -20 -13 -29 -11 -29 5 0 8 10 17 23 19 20 4 19 4 -4 6 -15 0 -46 8 -70 16 -24 9 -54 16 -66 17 -13 2 -33 13 -45 25 -12 13 -28 23 -35 23 -21 0 -39 48 -23 63 10 10 12 8 7 -11 -3 -12 -1 -20 3 -17 5 3 13 -1 17 -10 7 -12 18 -13 70 -3 54 10 67 9 102 -7 22 -9 57 -33 77 -52 20 -18 42 -32 48 -29 7 3 6 5 -2 5 -8 1 -10 6 -6 14 4 6 4 9 -1 5 -4 -4 -14 0 -23 8 -13 13 -13 17 -1 24 8 5 19 4 26 -2 7 -6 13 -7 13 -3 0 19 -35 33 -55 23 -11 -6 -17 -7 -13 -3 5 5 -2 13 -15 20 -12 6 -21 17 -20 23 4 16 -24 15 -30 0 -3 -10 -7 -10 -19 0 -9 7 -24 9 -33 5 -12 -4 -16 -3 -12 4 4 6 24 11 44 11 22 0 41 6 49 16 6 9 16 16 22 16 12 0 11 52 -1 61 -5 4 -3 16 5 28 11 19 11 24 -4 35 -17 12 -18 42 -2 68 4 6 -1 17 -11 25 -14 9 -15 13 -4 13 12 0 12 2 0 9 -9 6 -12 18 -8 32 5 22 5 22 -7 7 -22 -29 -29 -20 -10 11 10 17 22 27 28 24 6 -4 5 1 -3 11 -13 15 -13 19 0 27 12 7 12 9 -1 10 -8 1 -21 2 -29 3 -8 0 -16 7 -19 15 -4 11 2 12 23 7 24 -6 27 -5 16 7 -13 16 -54 31 -45 16 3 -5 0 -9 -6 -9 -6 0 -9 -4 -6 -9 3 -5 -1 -15 -10 -22 -13 -10 -17 -10 -23 0 -7 10 -13 11 -31 1 -12 -6 -24 -9 -28 -6 -3 3 1 6 8 6 7 0 10 3 7 7 -4 3 -17 -2 -29 -13 -12 -10 -18 -13 -14 -6 14 24 -18 12 -54 -20 -19 -18 -30 -27 -23 -19 9 11 7 17 -9 31 -21 16 -20 17 15 15 21 0 37 2 37 6 0 4 7 15 16 24 9 9 14 19 10 22 -9 9 -37 -18 -29 -30 3 -6 1 -7 -6 -3 -6 4 -17 4 -24 -1 -7 -5 -24 -9 -39 -8 -15 0 -25 -2 -23 -6 5 -8 -46 -32 -53 -24 -3 3 0 5 6 5 7 0 11 3 11 8 -3 20 2 25 12 12 8 -11 9 -6 5 20 -6 42 3 64 26 68 13 2 16 -2 11 -14 -5 -13 -3 -15 8 -9 8 5 7 1 -3 -12 -27 -29 -22 -37 8 -14 15 12 40 21 56 21 24 0 27 2 16 14 -7 8 -17 11 -23 8 -5 -2 -5 1 1 7 13 14 7 51 -7 51 -5 0 -8 5 -7 11 2 6 -7 12 -19 14 -12 1 -20 -2 -17 -7 3 -4 1 -8 -4 -8 -5 0 -12 9 -15 20 -3 11 -14 20 -24 20 -36 0 -45 21 -20 48 l22 25 -27 -18 c-25 -16 -28 -16 -28 -1 0 22 -9 20 -38 -6 -14 -13 -22 -18 -18 -11 3 6 2 14 -4 18 -5 3 -10 0 -10 -7 0 -10 -2 -10 -9 0 -4 8 -12 14 -17 15 -5 1 -8 8 -8 14 1 7 -1 11 -5 9 -3 -2 -14 -1 -23 3 -12 4 -15 10 -8 20 7 12 12 12 23 3 11 -10 17 -9 27 3 7 8 9 15 4 16 -64 7 -84 -4 -84 -47 0 -24 2 -25 17 -13 14 12 16 12 8 0 -6 -11 -4 -13 8 -8 8 3 18 0 20 -7 4 -9 -3 -12 -19 -10 -13 1 -22 -2 -18 -7 5 -9 4 -10 -33 -14 -18 -2 -20 1 -14 14 5 9 11 41 15 71 4 30 12 60 17 66 7 8 6 15 -2 20 -8 4 -9 3 -5 -4 4 -7 2 -12 -3 -12 -6 0 -11 9 -11 20 0 27 -25 36 -45 16 -19 -19 -39 -21 -29 -3 4 7 3 9 -2 4 -5 -5 -9 -12 -10 -15 0 -4 -10 -27 -22 -52 -11 -24 -19 -47 -16 -52 2 -4 -5 -5 -17 -3 -21 4 -21 2 -15 -49 6 -55 -10 -124 -36 -149 -30 -30 -94 -67 -116 -67 -19 0 -21 2 -10 14 7 8 16 12 20 10 10 -6 28 31 49 99 21 71 77 160 95 153 9 -3 11 0 7 11 -5 12 -3 14 7 8 8 -5 11 -4 6 3 -3 5 0 13 6 15 10 4 10 6 1 6 -7 1 -13 6 -13 12 0 5 4 8 9 4 5 -3 13 0 17 6 5 8 3 9 -6 4 -10 -6 -12 -4 -7 8 4 12 1 15 -14 12 -14 -3 -19 0 -16 9 3 7 -1 13 -9 13 -7 0 -11 -4 -8 -8 9 -15 -32 -15 -50 0 -11 9 -16 10 -12 4 12 -22 -1 -14 -32 17 -31 30 -62 32 -62 4 0 -8 -6 -11 -16 -7 -9 3 -13 12 -9 21 5 14 -9 31 -26 32 -4 0 -9 -14 -13 -31z m-48 -34 c2 -22 0 -24 -18 -13 -14 9 -16 16 -8 25 16 19 23 16 26 -12z m180 -11 c1 -1 -5 -7 -15 -15 -15 -12 -16 -12 -10 4 6 15 3 17 -13 12 -22 -7 -23 -5 -14 20 6 14 8 14 28 -2 11 -10 22 -18 24 -19z m-79 -71 c18 -49 38 -98 44 -110 5 -12 7 -45 5 -74 -5 -45 -11 -58 -42 -86 -19 -18 -39 -33 -43 -33 -5 0 -26 16 -47 35 -39 33 -40 36 -39 97 0 49 9 86 39 161 21 53 41 97 44 97 3 0 20 -39 39 -87z m331 7 l0 -79 -55 -42 c-30 -23 -55 -48 -55 -55 0 -17 -16 -18 -26 -2 -4 6 -3 8 4 4 10 -6 26 39 21 60 -1 5 0 16 3 24 3 8 11 33 18 55 10 32 73 115 87 115 2 0 3 -36 3 -80z m-470 49 c0 -5 4 -8 9 -5 4 3 16 -1 26 -8 17 -12 17 -13 -1 -11 -11 0 -25 4 -32 9 -16 9 -16 -6 1 -23 7 -9 7 -11 1 -8 -7 4 -14 0 -18 -8 -7 -20 -45 -19 -53 1 -9 24 11 49 36 47 13 -2 20 1 16 7 -3 6 -1 10 4 10 6 0 11 -5 11 -11z m256 2 c-3 -5 1 -14 9 -21 21 -17 1 -52 -28 -48 -31 4 -34 42 -5 62 25 18 32 20 24 7z m-346 -15 c0 -8 -4 -17 -8 -20 -13 -8 -35 11 -28 23 10 16 36 14 36 -3z m425 -12 c-1 -12 -18 -39 -39 -60 -20 -21 -34 -31 -31 -24 4 11 -2 15 -20 15 -21 0 -22 -2 -10 -14 12 -12 11 -16 -12 -28 -32 -17 -33 -16 -33 5 0 29 17 45 47 46 19 1 31 8 38 24 11 26 27 30 18 5 -6 -16 -5 -16 10 -4 21 16 22 31 3 31 -8 0 -16 7 -20 15 -4 12 1 15 22 13 21 -1 27 -7 27 -24z m-133 -29 c3 -13 2 -22 -3 -20 -4 3 -10 -1 -12 -7 -3 -7 -3 1 0 18 3 18 0 35 -6 38 -6 4 -11 2 -11 -5 0 -7 -3 -10 -6 -6 -3 3 -3 11 1 17 10 16 32 -4 37 -35z m-522 -30 c13 -16 12 -17 -20 -17 -11 0 -23 0 -26 1 -9 1 16 31 26 31 4 0 13 -7 20 -15z m326 -30 c6 -26 -9 -55 -30 -55 -6 0 -4 5 4 10 13 8 13 11 -2 26 -13 13 -14 20 -5 30 18 20 26 17 33 -11z m-446 -51 c0 -8 6 -14 14 -14 7 0 19 -7 26 -15 14 -17 8 -19 -18 -6 -9 6 -29 12 -44 16 -26 5 -27 6 -11 25 18 20 33 18 33 -6z m1110 -4 c0 -11 -5 -20 -10 -20 -6 0 -21 -10 -33 -22 -21 -22 -63 -35 -51 -17 3 5 13 9 22 10 12 0 9 3 -7 10 -19 8 -29 5 -45 -10 l-21 -20 3 39 c4 38 6 40 38 40 35 0 42 -8 23 -27 -7 -7 -3 -12 16 -15 22 -5 27 -1 32 23 6 33 33 40 33 9z m-1000 -26 l0 -37 -32 25 c-45 35 -46 48 -4 48 35 0 36 -1 36 -36z m840 15 c-11 -8 -12 -12 -2 -16 6 -2 12 -9 12 -15 0 -6 -9 -3 -20 7 -16 14 -20 15 -24 4 -9 -26 -25 -171 -20 -183 7 -18 -74 -18 -158 1 -43 9 -78 20 -78 24 0 11 39 18 42 7 2 -6 26 16 53 47 61 72 145 128 200 134 6 0 3 -4 -5 -10z m-743 -21 c67 -38 97 -65 138 -122 22 -30 49 -57 60 -59 11 -2 -2 -5 -30 -5 -27 -1 -76 -3 -107 -5 -31 -1 -62 3 -67 8 -6 6 -15 46 -21 90 -6 44 -13 88 -16 98 -7 22 -3 22 43 -5z m-216 -32 c57 -23 72 -35 102 -79 20 -29 51 -68 69 -86 30 -30 31 -34 15 -46 -9 -6 -14 -15 -11 -18 3 -3 -2 -4 -13 -1 -24 6 -44 -8 -46 -33 0 -11 -8 -20 -16 -19 -9 1 -16 -4 -16 -11 0 -6 -4 -15 -9 -20 -5 -5 -6 -2 -1 6 6 10 2 12 -16 6 -31 -9 -44 -22 -44 -43 0 -10 -9 -18 -23 -20 -18 -3 -21 -7 -12 -17 8 -9 6 -14 -7 -19 -20 -8 -66 40 -56 57 3 6 1 7 -5 3 -14 -8 -62 11 -62 25 0 11 -22 34 -63 67 -14 12 -15 11 -4 -13 7 -14 22 -28 35 -31 12 -4 22 -12 22 -20 0 -17 -1 -17 -50 2 -33 13 -45 26 -70 77 -16 33 -28 62 -26 64 10 10 96 -10 131 -30 29 -17 42 -34 57 -75 11 -29 24 -50 29 -46 6 3 16 0 24 -6 8 -7 15 -9 15 -5 0 4 7 2 15 -5 11 -9 15 -9 15 -1 0 6 -11 16 -24 21 -28 10 -41 32 -61 96 -19 65 8 58 102 -28 43 -39 54 -44 67 -30 7 7 11 8 37 11 5 0 7 6 3 12 -4 8 -9 7 -15 -2 -6 -10 -9 -11 -9 -2 0 7 -3 12 -7 11 -5 -1 -23 6 -40 15 -40 21 -78 93 -89 167 -1 8 -9 35 -18 59 -11 31 -12 42 -3 38 6 -3 42 -17 78 -31z m1159 -58 c-46 -160 -70 -187 -157 -184 -44 1 -50 -1 -40 -13 10 -12 9 -12 -10 0 -14 8 -18 16 -11 20 15 9 -29 32 -48 25 -8 -3 -14 -1 -14 5 0 5 -10 14 -22 19 -14 5 -17 9 -7 9 8 1 20 -4 25 -9 16 -16 35 -4 78 50 21 27 43 47 47 44 5 -3 6 1 3 9 -3 8 0 18 7 23 8 4 10 3 5 -4 -12 -20 0 -13 20 10 15 19 16 20 2 9 -15 -11 -18 -11 -18 0 0 13 128 77 156 78 7 1 1 -35 -16 -91z m88 65 c-1 -5 4 -19 11 -32 7 -13 8 -21 3 -17 -6 3 -13 2 -17 -4 -3 -5 -11 -10 -16 -10 -12 0 -7 53 6 62 13 10 16 10 13 1z m-1082 -49 c-4 -32 -12 -39 -31 -24 -18 15 -20 47 -2 53 22 8 36 -4 33 -29z m798 30 c20 -8 21 -38 1 -54 -8 -7 -15 -19 -15 -26 0 -8 -6 -11 -17 -7 -11 4 -12 8 -5 11 7 2 10 13 6 28 -6 23 0 54 10 54 2 0 11 -3 20 -6z m467 -177 c-8 -8 -11 -8 -11 1 0 7 -4 12 -10 12 -5 0 -10 -8 -10 -18 0 -11 -13 -38 -30 -60 -29 -40 -73 -67 -135 -82 -19 -4 -29 -12 -27 -21 2 -8 0 -11 -4 -7 -4 4 -20 -2 -35 -13 -30 -21 -49 -18 -49 6 0 19 -30 46 -42 39 -7 -4 -8 -2 -4 4 4 7 14 12 22 12 8 0 14 4 14 10 0 5 -13 7 -30 4 -16 -4 -30 -3 -30 0 0 9 55 57 82 72 10 5 16 13 12 16 -7 8 49 38 71 38 14 0 14 -3 0 -30 -8 -16 -15 -36 -15 -44 0 -9 -16 -31 -35 -51 -21 -20 -30 -35 -22 -35 8 0 20 7 27 15 10 12 15 13 21 4 7 -12 25 21 43 79 9 27 77 59 146 70 55 8 73 1 51 -21z m-821 12 c0 -5 -5 -7 -12 -3 -7 4 -8 3 -4 -5 4 -6 13 -8 19 -5 9 5 8 3 0 -6 -10 -11 -16 -10 -33 5 -35 32 -22 1 15 -35 19 -19 35 -38 35 -43 0 -5 13 -37 29 -71 26 -54 38 -67 104 -109 56 -36 75 -53 75 -70 -1 -12 2 -64 5 -116 6 -88 9 -95 41 -131 18 -20 35 -43 38 -50 2 -8 9 -10 17 -6 9 6 9 11 0 22 -9 11 -9 18 1 29 8 10 13 46 12 101 0 69 3 84 14 80 8 -3 14 1 14 10 0 9 -5 12 -12 8 -7 -4 -8 -3 -4 5 9 14 26 5 26 -15 0 -8 5 -14 10 -14 13 0 13 6 0 33 -10 22 -10 22 6 0 9 -13 24 -23 33 -23 14 1 14 2 -1 14 -26 19 -22 30 4 12 29 -21 49 -20 23 1 -20 15 -20 15 3 10 12 -3 22 -1 22 3 0 5 -10 11 -22 13 -17 3 -15 5 9 6 17 0 34 5 37 10 3 5 -13 8 -37 6 -53 -3 -52 -2 -37 -19 9 -12 8 -15 -12 -13 -13 2 -34 8 -48 15 -23 12 -24 12 -6 -2 11 -9 16 -16 10 -16 -5 -1 -19 -9 -32 -20 -24 -20 -38 -85 -21 -96 5 -3 5 -13 -1 -23 -5 -10 -6 -21 -3 -25 3 -3 1 -6 -6 -6 -8 0 -11 6 -7 16 3 8 2 12 -4 9 -6 -3 -11 2 -11 12 -1 13 -2 14 -5 3 -3 -9 -15 -22 -27 -29 -20 -13 -21 -13 -9 2 16 19 18 64 4 129 -5 26 -5 45 -1 42 5 -3 9 -2 10 3 1 10 6 30 15 62 5 17 4 22 -4 17 -7 -4 -12 -2 -12 4 0 7 8 9 21 5 15 -5 19 -4 15 4 -4 6 -5 11 -1 11 3 0 10 -11 15 -25 11 -30 26 -31 60 -5 20 15 23 21 12 32 -10 10 -15 8 -28 -10 -19 -28 -30 -28 -37 0 -5 16 1 30 18 48 14 15 25 33 25 42 0 25 -28 48 -60 48 -38 0 -81 -55 -69 -88 5 -13 13 -20 19 -17 5 3 10 -1 10 -9 0 -21 -1 -21 -70 14 -46 23 -71 45 -110 96 -27 37 -50 74 -50 83 0 10 -5 22 -12 29 -20 20 -4 22 58 11 240 -44 463 -219 564 -443 64 -142 80 -326 41 -476 -13 -47 -30 -100 -38 -118 -14 -29 -14 -35 -2 -44 11 -8 11 -9 -3 -5 -11 4 -26 -10 -52 -51 -100 -160 -273 -283 -464 -328 -89 -21 -257 -20 -349 1 l-73 17 0 80 c0 45 3 78 7 75 3 -4 5 -36 4 -72 -2 -59 5 -76 22 -58 4 3 2 12 -4 19 -7 8 -7 14 1 19 15 9 13 38 -2 30 -7 -4 -5 0 5 8 10 8 14 18 9 21 -6 3 -9 32 -8 63 2 33 -2 62 -8 66 -8 6 -7 10 2 14 10 4 10 8 1 19 -6 8 -15 11 -20 8 -10 -6 -10 -6 -14 134 -2 82 1 102 12 102 11 0 13 -20 10 -110 -4 -105 -4 -110 18 -124 13 -9 26 -26 28 -38 3 -17 5 -14 6 10 0 18 -3 31 -8 27 -17 -10 -23 16 -8 33 19 22 19 73 0 87 -17 12 -30 120 -14 110 5 -3 10 -13 9 -23 0 -9 5 -30 10 -47 8 -24 10 -15 9 50 0 44 -2 68 -4 53 -4 -27 -13 -35 -26 -21 -4 3 -2 12 4 19 7 9 7 19 0 32 -6 11 -9 34 -6 51 2 20 -1 31 -9 31 -8 0 -11 -19 -9 -65 2 -50 -1 -65 -12 -65 -11 0 -13 18 -11 88 2 48 1 93 -1 100 -8 20 -26 14 -20 -8 3 -12 0 -20 -8 -20 -7 0 -12 8 -10 18 1 9 0 11 -2 5 -3 -7 -12 -13 -21 -14 -9 0 -30 -2 -46 -2 -16 -1 -31 -8 -34 -16 -3 -10 0 -11 9 -5 25 15 49 15 49 -1 0 -11 -12 -15 -42 -15 -30 0 -39 -3 -29 -9 22 -14 22 -41 0 -41 -20 0 -26 -24 -8 -35 6 -4 8 -14 5 -22 -3 -8 -1 -24 5 -36 10 -21 10 -21 -5 -3 -15 19 -16 19 -17 -7 -3 -78 -1 -102 8 -93 4 4 6 23 5 43 -2 21 0 34 4 30 22 -21 12 -83 -14 -91 -14 -4 -13 -5 3 -4 35 1 38 -2 24 -19 -12 -14 -12 -16 0 -8 11 6 13 4 8 -9 -4 -10 -7 -22 -7 -28 0 -6 -6 -8 -14 -5 -13 5 -14 1 -7 -32 1 -2 8 2 16 9 10 9 15 9 15 1 0 -11 -11 -14 -40 -12 -11 0 -11 -1 -2 -5 9 -4 10 -9 2 -19 -8 -9 -8 -15 0 -20 6 -4 9 -1 8 6 -2 7 5 14 14 17 15 3 15 0 5 -27 -6 -17 -15 -31 -20 -31 -4 0 -5 5 -2 10 3 6 1 10 -5 10 -7 0 -9 -8 -5 -20 3 -11 3 -25 -1 -31 -12 -20 -21 9 -17 59 3 51 3 77 0 192 -2 41 -1 79 2 84 6 14 5 85 -2 93 -4 3 -14 0 -23 -7 -13 -12 -17 -11 -25 1 -5 8 -9 23 -10 34 -4 86 -18 97 -16 14 1 -71 11 -85 43 -64 l21 14 -2 -202 c-2 -111 -1 -210 2 -219 8 -31 33 -19 54 25 15 32 19 35 16 15 -2 -15 0 -33 4 -40 7 -10 9 -8 9 5 0 10 11 28 25 41 26 24 24 36 -7 36 -19 0 -20 5 -20 110 0 97 1 112 12 105 6 -4 7 -11 4 -17 -4 -6 1 -8 12 -4 22 7 49 -7 41 -21 -3 -5 0 -10 7 -10 9 0 12 22 13 78 0 66 -3 76 -16 72 -14 -4 -14 -3 -2 5 10 7 15 27 14 56 -1 25 3 46 8 46 10 0 10 -9 9 -155 0 -55 -1 -110 0 -122 0 -13 -5 -23 -10 -23 -6 0 -10 7 -10 15 0 16 -12 20 -23 8 -4 -3 -1 -13 5 -21 17 -20 18 -40 2 -46 -8 -3 -14 -1 -14 4 0 6 -3 9 -7 9 -18 -3 -20 3 -13 40 5 27 3 41 -4 44 -9 4 -11 -18 -10 -72 2 -92 2 -94 13 -87 5 4 11 0 14 -6 2 -7 8 -9 13 -5 5 5 1 13 -9 18 -23 14 -22 35 4 42 13 4 19 1 16 -6 -2 -7 -1 -21 3 -32 4 -11 3 -28 -2 -37 -7 -14 -5 -18 12 -18 11 0 20 -7 20 -15 0 -8 -4 -15 -10 -15 -5 0 -10 5 -10 10 0 6 -4 10 -8 10 -5 0 -8 -10 -6 -23 1 -12 3 -30 3 -39 1 -10 8 -18 16 -18 11 0 15 -13 15 -53 0 -29 5 -58 12 -65 6 -6 9 -14 6 -17 -5 -6 -24 1 -108 38 -47 20 -145 94 -194 146 -16 17 -33 28 -37 25 -5 -3 -6 1 -4 9 3 7 -8 31 -25 52 -44 55 -101 174 -107 226 -3 24 -11 47 -17 51 -7 5 -11 56 -11 145 0 129 2 144 32 229 52 151 128 258 247 353 99 79 244 142 376 164 54 9 160 7 160 -4z m-950 -34 c0 -7 -10 -12 -24 -11 -23 1 -23 2 -9 18 17 19 33 15 33 -7z m1804 19 c20 -8 21 -24 1 -24 -7 0 -18 -7 -23 -17 -6 -10 -16 -14 -26 -10 -10 4 -15 11 -11 16 3 6 12 8 20 4 10 -3 15 2 15 16 0 23 1 24 24 15z m-1803 -45 c-13 -11 -30 -18 -38 -15 -7 3 -13 -1 -13 -9 0 -20 -26 -19 -34 0 -6 16 -6 16 43 19 19 1 39 9 45 18 6 10 13 15 16 12 3 -3 -6 -15 -19 -25z m45 -38 c40 -31 -2 -45 -45 -14 -23 16 -23 17 -5 24 10 4 21 8 22 8 2 1 15 -7 28 -18z m1331 11 c7 -4 9 -13 4 -20 -6 -10 -15 -10 -34 -3 -35 13 -34 19 1 14 21 -4 24 -2 12 6 -17 12 -2 15 17 3z m417 -1 c8 -12 -37 -40 -62 -38 -17 1 -19 4 -9 15 20 24 62 38 71 23z m-729 -96 c44 -43 136 -110 147 -107 4 1 5 -5 1 -14 -5 -13 -10 -11 -32 9 -14 13 -47 38 -72 55 -52 35 -92 79 -115 126 l-15 31 23 -30 c12 -16 40 -48 63 -70z m768 41 c7 -17 -36 -27 -55 -14 -9 7 -8 8 5 4 11 -3 20 0 23 9 8 19 20 19 27 1z m-1610 -55 l59 -29 -38 -20 -39 -20 33 0 c17 1 32 5 32 10 0 4 5 8 10 8 6 0 5 -8 -2 -19 -7 -11 -15 -18 -19 -15 -4 2 -10 -8 -13 -21 -4 -14 -11 -23 -16 -20 -6 3 -10 -2 -10 -12 -1 -17 -1 -16 -12 1 -8 15 -8 21 0 24 26 8 10 18 -23 14 -52 -6 -90 14 -136 72 l-41 51 33 7 c55 11 119 0 182 -31z m1510 31 l39 -7 -41 -51 c-57 -72 -108 -88 -186 -60 -18 7 -18 6 2 -12 12 -11 19 -22 16 -26 -10 -9 -25 -7 -19 3 3 4 -3 16 -14 26 -11 10 -17 21 -15 25 3 4 -2 10 -10 14 -17 6 -21 36 -4 36 5 0 31 10 57 22 78 35 112 41 175 30z m-487 -23 c9 -10 13 -23 9 -29 -4 -7 -13 -4 -24 9 -10 11 -20 18 -23 16 -2 -3 -5 1 -5 8 0 19 24 17 43 -4z m-1240 -41 c16 -19 16 -20 1 -9 -9 8 -21 11 -24 7 -4 -4 -1 -11 7 -16 13 -8 12 -10 -2 -10 -9 0 -23 -3 -32 -6 -10 -4 -18 0 -22 10 -17 45 38 64 72 24z m1839 -18 c0 -19 -4 -38 -8 -41 -5 -3 -1 -13 8 -23 9 -9 11 -16 5 -16 -6 0 -13 7 -17 16 -3 9 -12 13 -22 10 -11 -4 -10 -1 4 9 17 14 18 17 5 25 -19 12 -33 13 -26 1 3 -4 -7 -6 -22 -4 -15 2 -33 5 -39 5 -13 1 -8 13 5 13 4 0 13 4 19 8 9 6 11 3 6 -10 -6 -16 -4 -16 16 2 12 11 18 21 12 23 -25 8 -9 23 22 20 29 -3 32 -6 32 -38z m-1855 -47 c0 -3 -6 -3 -13 0 -15 6 -41 -28 -43 -56 -1 -10 1 -15 4 -13 2 3 14 0 25 -5 14 -8 22 -8 27 0 5 9 10 8 19 -2 21 -26 -64 -15 -92 11 -13 12 -26 19 -30 16 -8 -8 -1 32 8 46 7 12 25 4 25 -11 0 -5 -7 -9 -16 -9 -8 0 -12 -5 -9 -10 4 -7 13 -7 26 0 11 6 16 16 13 22 -4 6 -3 8 3 5 6 -4 13 0 17 8 5 13 36 11 36 -2z m118 -19 c30 -14 62 -24 72 -21 13 3 19 -2 23 -19 2 -14 0 -21 -6 -17 -6 4 -8 0 -4 -10 4 -11 -1 -18 -14 -22 -10 -4 -17 -10 -14 -15 3 -4 -4 -6 -15 -3 -11 3 -23 10 -27 16 -4 7 1 8 13 3 14 -5 16 -4 8 4 -6 6 -28 11 -48 12 -32 1 -43 8 -67 41 -16 22 -29 44 -29 49 0 16 54 8 108 -18z m1672 15 c0 -6 -17 -29 -39 -50 -21 -21 -37 -40 -35 -42 2 -2 -13 -3 -33 -3 -28 1 -38 5 -37 16 1 11 -9 17 -30 18 -42 4 -55 19 -16 20 16 0 49 10 73 21 70 33 117 41 117 20z m-1800 -49 c-21 -14 -30 -12 -30 4 0 18 22 27 35 14 6 -6 5 -12 -5 -18z m-66 -37 c4 -9 0 -23 -9 -32 -13 -14 -17 -14 -30 0 -19 19 -10 49 15 49 10 0 21 -8 24 -17z m182 -34 c24 -6 44 -15 44 -19 0 -29 -171 -83 -233 -73 -20 3 -37 8 -37 11 0 7 26 27 79 63 49 31 78 35 147 18z m1565 -56 c28 -26 69 -42 111 -46 23 -2 5 -23 -31 -35 -25 -9 -30 -7 -45 19 -9 16 -21 29 -27 29 -13 0 -12 -4 13 -45 15 -27 18 -39 9 -44 -8 -6 -9 -15 -2 -34 8 -20 7 -27 -2 -27 -6 0 -13 10 -14 23 -7 67 -16 107 -25 107 -6 0 -7 11 -4 25 5 18 2 25 -9 25 -8 0 -15 7 -15 15 0 21 6 19 41 -12z m-1531 -38 c0 -5 -4 -4 -8 3 -6 9 -14 2 -28 -23 -10 -19 -21 -35 -23 -35 -13 0 -71 25 -71 31 0 8 42 24 83 33 15 4 27 12 27 19 0 8 4 7 10 -3 5 -8 10 -19 10 -25z m1135 -63 c-4 -4 -13 1 -20 12 -8 10 -18 15 -24 11 -15 -8 -14 8 0 22 9 9 17 6 32 -13 10 -14 16 -28 12 -32z m-1135 6 c0 -17 -3 -28 -7 -25 -3 4 -12 2 -19 -4 -21 -17 -27 9 -7 36 24 33 33 31 33 -7z m-248 -20 c7 -13 11 -27 10 -31 -8 -29 63 -106 137 -148 34 -19 41 -28 42 -53 0 -28 1 -29 9 -9 5 11 6 29 3 40 -6 22 -69 76 -88 76 -14 0 -16 17 -4 27 4 3 -5 14 -20 24 l-26 20 19 -22 c11 -12 15 -22 9 -22 -13 0 -37 28 -57 68 -15 30 -15 33 -1 39 23 8 119 -3 142 -18 17 -10 19 -21 16 -85 -3 -62 -1 -74 12 -74 12 0 14 4 5 19 -13 25 -13 40 1 21 8 -11 9 -9 4 10 -12 41 -11 44 10 47 11 1 15 0 8 -3 -7 -3 -10 -11 -8 -17 2 -7 6 -57 9 -113 4 -81 2 -105 -10 -120 -15 -19 -15 -19 -10 1 3 11 2 25 -2 30 -14 20 -63 46 -74 39 -6 -4 -9 -1 -6 7 3 8 12 13 22 11 28 -5 18 5 -61 58 -43 29 -88 62 -100 73 -21 18 -21 22 -7 48 17 35 18 44 2 44 -7 0 -14 8 -16 18 -5 24 15 21 30 -5z m1998 7 c0 -3 -9 -25 -21 -49 -14 -31 -37 -56 -75 -82 -30 -21 -54 -41 -54 -46 0 -5 -4 -7 -9 -3 -5 3 -12 1 -15 -4 -4 -5 -2 -12 4 -16 18 -11 100 47 143 101 36 45 81 84 62 53 -4 -5 -2 -16 4 -23 6 -7 9 -20 6 -27 -6 -16 -68 -62 -137 -102 -49 -28 -65 -54 -28 -44 11 3 20 2 20 -3 0 -13 -27 -19 -38 -8 -7 7 -16 7 -29 -1 -10 -6 -13 -11 -5 -11 7 0 11 -4 7 -10 -3 -5 -11 -8 -18 -6 -7 1 -8 1 -4 -2 4 -2 3 -10 -4 -18 -16 -19 -5 -18 33 6 36 22 88 26 119 9 32 -17 12 -28 -39 -23 -30 4 -63 0 -91 -10 -55 -20 -51 -21 -51 13 0 45 18 84 35 77 9 -3 15 1 15 10 0 10 -6 14 -15 10 -12 -4 -15 3 -15 29 0 19 5 35 10 35 6 0 10 -5 10 -12 0 -15 11 -4 14 14 1 7 6 19 10 27 6 10 5 12 -2 7 -9 -5 -12 8 -12 43 0 29 5 51 11 51 5 0 7 -5 4 -10 -4 -6 8 -2 27 10 30 18 128 30 128 15z m-1309 -214 c-12 -12 -25 -21 -29 -21 -4 0 -9 -11 -10 -26 -1 -15 2 -23 8 -19 6 4 8 10 5 15 -3 5 -1 11 5 15 6 4 10 -6 10 -24 0 -21 -5 -31 -15 -31 -8 0 -15 -4 -15 -9 0 -5 -6 -11 -14 -14 -9 -4 -12 2 -9 21 3 15 7 44 10 65 4 31 9 37 28 37 13 0 27 5 30 11 4 6 9 8 12 5 2 -2 -5 -14 -16 -25z m-521 -77 c42 -17 57 -42 18 -29 -36 11 -142 12 -155 2 -8 -6 -13 -6 -13 1 0 13 59 41 87 42 13 0 41 -7 63 -16z m3 -53 c35 -13 57 -39 57 -66 0 -26 -16 -43 -18 -20 -1 8 -3 22 -4 30 -1 8 -5 12 -9 9 -4 -2 -6 -17 -4 -32 3 -25 0 -28 -28 -30 -90 -6 -135 90 -52 111 32 8 32 7 58 -2z m539 -24 c-9 -10 -8 -17 1 -26 9 -10 9 -11 -5 -6 -15 6 -16 15 -9 65 1 2 6 -1 13 -8 8 -8 8 -15 0 -25z m-654 11 c-7 -19 -38 -22 -38 -4 0 10 9 16 21 16 12 0 19 -5 17 -12z m236 -89 c30 -70 36 -93 27 -102 -9 -9 -11 -8 -5 6 4 12 -1 25 -15 38 -11 11 -21 24 -21 29 0 6 -7 10 -16 10 -8 0 -13 4 -10 9 4 5 0 12 -6 14 -8 4 -7 6 4 6 9 1 19 -5 21 -11 4 -10 6 -10 6 0 1 8 -8 16 -19 19 -15 4 -20 13 -18 32 1 15 -1 32 -6 39 -4 7 -2 10 6 7 7 -3 30 -46 52 -96z m1487 77 c-6 -7 -8 -16 -4 -19 3 -4 1 -7 -4 -7 -6 0 -10 -8 -8 -17 2 -10 4 -18 5 -18 1 0 3 -7 5 -16 2 -11 -3 -16 -13 -15 -17 3 -30 26 -14 26 6 0 9 8 7 18 -1 9 2 26 8 37 6 11 10 24 9 28 -1 5 2 6 8 2 8 -5 8 -11 1 -19z m162 3 c20 -28 11 -55 -24 -69 -16 -7 -27 -15 -25 -19 3 -3 -14 -4 -37 -2 -24 3 -33 6 -22 9 33 7 44 25 12 20 -24 -5 -27 -3 -21 16 6 18 5 19 -9 7 -9 -7 -14 -17 -11 -22 3 -5 0 -9 -6 -9 -18 0 -7 53 15 72 30 26 110 24 128 -3z m35 -107 c3 -19 -1 -22 -27 -22 -24 0 -31 4 -31 19 0 35 53 37 58 3z m-1724 -12 c9 0 16 -7 16 -15 0 -8 7 -15 15 -15 17 0 20 -16 4 -26 -7 -4 -7 -10 -1 -16 14 -14 -9 -59 -27 -53 -7 3 -20 0 -27 -6 -10 -8 -18 -8 -27 0 -10 8 -17 7 -25 -1 -9 -9 -12 -7 -12 10 0 15 -6 22 -20 22 -23 0 -26 10 -8 28 9 9 9 15 0 24 -17 17 -15 25 8 31 11 3 20 12 20 21 0 19 16 21 23 4 3 -9 7 -6 12 6 8 17 9 17 20 2 7 -9 20 -16 29 -16z m567 23 c0 -5 2 -19 3 -33 2 -13 -3 -30 -10 -37 -17 -17 -20 -16 -20 6 0 11 6 17 12 14 8 -3 11 2 7 16 -3 11 -9 18 -14 15 -5 -3 -6 2 -3 10 6 16 23 22 25 9z m1012 -7 c12 4 17 1 17 -11 0 -9 9 -19 20 -22 22 -6 24 -11 11 -32 -6 -9 -4 -22 6 -37 13 -21 13 -22 -6 -17 -15 4 -23 -1 -29 -18 -6 -15 -11 -19 -16 -10 -6 9 -11 9 -22 0 -10 -9 -17 -9 -28 0 -7 6 -21 9 -30 5 -16 -6 -21 12 -17 59 1 9 -3 17 -8 17 -6 0 -11 5 -11 10 0 6 7 10 15 10 8 0 15 7 15 15 0 8 9 15 20 15 11 0 23 7 27 16 4 10 8 12 13 4 3 -6 14 -8 23 -4z m-1093 -81 c0 -36 -4 -65 -10 -65 -5 0 -7 16 -5 36 3 20 1 33 -4 30 -5 -4 -4 10 2 29 6 19 12 35 14 35 2 0 3 -29 3 -65z m968 -1 c4 2 8 -7 8 -20 1 -13 -2 -24 -8 -24 -5 0 -7 -4 -4 -9 3 -5 -6 -8 -19 -8 -27 0 -55 -19 -55 -37 0 -6 -9 -19 -20 -29 -11 -9 -20 -14 -20 -10 0 4 -9 -3 -20 -15 -12 -12 -24 -22 -28 -22 -4 0 13 19 38 43 25 23 61 66 80 94 19 28 37 47 38 42 2 -5 7 -7 10 -5z m-1349 -17 c6 -8 8 -17 4 -20 -3 -4 -1 -7 6 -7 8 0 11 -7 7 -15 -3 -8 -1 -15 4 -15 5 0 23 -13 39 -29 27 -26 28 -31 14 -43 -14 -11 -16 -11 -12 1 7 20 -74 93 -95 85 -19 -7 -23 25 -4 44 15 15 23 15 37 -1z m427 -84 c-14 -14 -27 15 -20 43 l8 29 9 -33 c6 -18 7 -35 3 -39z m-490 35 c-1 -7 -8 -23 -14 -35 -8 -15 -9 -23 -2 -23 5 0 10 -12 10 -26 0 -22 -4 -25 -27 -22 -36 4 -38 19 -8 52 31 33 31 39 3 30 -26 -8 -19 3 14 22 13 6 24 12 25 13 1 1 0 -5 -1 -11z m1424 -37 c0 -11 -148 -153 -196 -188 -33 -23 -40 -33 -33 -46 8 -13 6 -15 -6 -11 -11 4 -15 0 -15 -16 0 -28 33 -23 38 5 7 45 11 49 31 30 13 -11 27 -15 43 -10 17 5 19 4 8 -4 -22 -15 -1 -31 65 -52 60 -18 67 -14 32 19 -17 16 -26 19 -34 11 -8 -8 -13 -7 -18 3 -5 7 -4 10 0 5 5 -4 17 1 28 10 18 17 20 17 39 -7 11 -14 30 -37 43 -51 32 -37 16 -52 -37 -33 -57 20 -62 18 -37 -17 16 -22 18 -34 10 -42 -6 -6 -12 -9 -14 -6 -76 115 -95 139 -109 139 -9 0 -29 -11 -44 -25 -26 -24 -28 -24 -46 -9 -20 19 -24 54 -7 71 8 8 5 15 -9 25 -20 13 -18 15 26 40 26 15 83 63 126 107 66 67 82 78 98 70 10 -5 18 -13 18 -18z m68 -47 c2 -15 -3 -23 -17 -27 -24 -6 -46 16 -37 39 9 23 50 14 54 -12z m-68 -40 c11 -13 4 -24 -51 -80 -63 -63 -68 -74 -26 -53 16 7 14 4 -6 -11 -15 -12 -24 -27 -21 -32 4 -7 2 -8 -4 -4 -6 4 -8 14 -5 22 4 10 -2 17 -16 21 -11 3 -21 10 -21 16 0 11 119 135 131 136 4 1 12 -6 19 -15z m-194 -9 c-11 -8 -32 -26 -47 -39 -15 -13 -29 -23 -31 -22 -1 2 -11 -5 -20 -15 -16 -17 -16 -18 3 -24 22 -7 24 -19 5 -37 -11 -11 -11 -18 2 -45 9 -18 20 -33 25 -33 6 0 3 -8 -6 -18 -9 -10 -15 -28 -12 -40 6 -35 -12 -35 -36 0 -13 17 -17 28 -10 23 9 -5 12 -3 9 6 -3 8 -12 15 -20 17 -12 2 -14 -3 -11 -23 4 -18 1 -25 -10 -25 -9 0 -19 5 -22 10 -13 22 -25 -3 -21 -42 6 -50 8 -52 41 -44 27 7 27 8 8 52 -2 6 2 14 10 17 10 4 22 -14 40 -61 14 -37 24 -68 22 -70 -10 -11 -35 9 -35 28 0 23 0 23 -35 10 -23 -9 -26 -14 -20 -40 5 -22 3 -30 -7 -30 -7 0 -23 29 -35 66 -18 55 -20 66 -7 71 7 3 11 9 8 14 -3 5 -9 7 -14 4 -5 -3 -12 9 -15 27 -4 18 -12 36 -17 39 -6 4 -2 15 11 28 26 26 26 30 2 28 -11 0 -18 -4 -16 -7 2 -3 -3 -14 -11 -25 -8 -10 -14 -13 -14 -7 0 7 -9 12 -20 12 -17 0 -23 -10 -19 -36 1 -11 -24 -22 -38 -17 -7 3 -10 9 -7 14 3 5 0 9 -5 9 -15 0 -14 -16 5 -51 15 -30 15 -31 -6 -24 -15 5 -26 1 -36 -12 -15 -17 -15 -17 -10 7 19 77 19 79 0 75 -11 -2 -23 -4 -27 -4 -5 -1 -6 -5 -3 -10 10 -16 -5 -41 -25 -41 -12 0 -19 -7 -19 -20 0 -11 -4 -20 -10 -20 -5 0 -10 20 -10 45 0 43 1 45 28 45 16 0 36 6 46 13 16 12 13 13 -21 11 -21 0 -46 -5 -56 -9 -10 -4 -29 -3 -43 4 -20 9 -26 8 -31 -4 -5 -14 -8 -14 -22 -2 -23 20 -61 31 -61 17 0 -7 -6 -7 -22 1 -16 9 -23 9 -26 0 -2 -6 -8 -11 -13 -11 -6 0 -7 5 -3 12 5 7 3 8 -6 3 -10 -6 -12 -4 -6 10 7 18 6 18 -14 0 -11 -10 -23 -15 -27 -12 -3 4 -1 7 5 7 6 0 9 6 6 14 -3 9 -12 12 -21 9 -12 -5 -14 -3 -8 8 4 8 5 11 0 7 -4 -4 -15 -2 -23 5 -13 10 -14 9 -7 -2 6 -11 5 -12 -6 -5 -25 15 -42 13 -60 -9 l-19 -22 10 27 c7 22 6 30 -8 38 -16 11 -16 11 1 6 13 -4 21 2 28 22 10 27 11 27 27 7 9 -11 24 -20 32 -20 8 0 14 -6 12 -14 -3 -12 0 -12 12 -1 13 10 16 10 17 -1 0 -12 1 -12 6 0 4 10 7 11 13 1 4 -7 18 -13 31 -14 13 -1 23 -7 21 -14 -1 -7 5 -12 14 -12 8 0 13 4 10 8 -2 4 6 8 19 8 13 0 21 -4 19 -8 -3 -5 -10 -5 -16 -2 -7 4 -8 2 -4 -4 5 -9 13 -9 27 -2 11 6 24 8 29 5 5 -3 30 -6 55 -7 25 0 48 -4 50 -8 3 -4 22 -4 42 0 21 4 77 13 125 20 53 8 85 17 81 23 -3 6 -1 7 4 4 6 -4 27 0 46 8 19 8 37 11 41 8 3 -4 6 -2 6 4 0 6 29 26 65 44 36 18 75 44 87 56 12 13 26 23 32 23 6 0 2 -7 -8 -15z m-1095 -150 c11 0 40 -35 29 -35 -6 0 -13 7 -17 15 -5 14 -7 14 -23 0 -14 -12 -20 -13 -26 -4 -4 7 -3 10 4 5 6 -3 13 -2 17 4 3 5 -1 10 -10 10 -9 0 -13 5 -10 10 4 6 12 7 18 3 7 -4 15 -8 18 -8z m-56 -6 c4 -5 0 -18 -9 -28 -16 -17 -15 -19 7 -34 23 -15 25 -14 37 9 14 25 25 30 35 14 4 -7 -27 -59 -72 -119 -2 -3 -9 1 -15 7 -9 9 -7 16 6 31 16 18 16 20 -5 35 -21 14 -24 14 -37 -5 -7 -11 -11 -28 -7 -37 5 -13 1 -12 -15 4 l-21 21 38 56 c39 58 47 64 58 46z m260 -49 c-10 -22 -22 -37 -26 -34 -5 3 0 23 12 46 26 51 38 41 14 -12z m79 7 c13 -21 -8 -40 -36 -31 -12 3 -18 0 -18 -10 0 -9 -4 -16 -10 -16 -14 0 -13 12 6 49 17 35 40 38 58 8z m849 -4 c-5 -12 -3 -14 7 -8 9 5 11 4 6 -3 -5 -9 -13 -9 -27 -2 -19 11 -24 22 -13 33 12 11 33 -5 27 -20z m-989 -8 c8 -8 17 -24 21 -34 3 -11 14 -22 23 -25 13 -4 13 -5 -3 -4 -40 1 -56 -2 -52 -9 3 -5 -3 -16 -13 -25 -14 -15 -17 -15 -17 -3 0 8 4 15 8 15 9 0 6 20 -4 38 -5 7 -4 12 2 12 6 0 11 -4 11 -10 0 -5 7 -10 15 -10 8 0 15 5 15 11 0 5 -5 7 -11 4 -6 -4 -9 0 -7 11 2 11 -2 18 -8 17 -6 -1 -11 5 -11 13 0 18 12 18 31 -1z m198 -47 c4 -36 4 -36 -22 -24 -14 7 -32 11 -40 8 -8 -2 1 12 20 32 19 20 36 33 37 29 1 -4 3 -25 5 -45z m43 3 c-4 -23 -11 -41 -16 -41 -11 0 -11 6 2 53 13 50 23 41 14 -12z m437 9 c20 -29 24 -40 13 -40 -8 0 -19 -8 -24 -17 -6 -10 -11 -13 -11 -7 0 5 5 15 12 22 8 8 8 12 1 12 -5 0 -22 -12 -37 -27 -14 -14 -29 -23 -33 -20 -3 4 -1 7 6 7 7 0 10 7 7 18 -3 9 -1 24 5 32 8 11 9 9 4 -10 -5 -19 -4 -22 4 -10 6 8 11 30 11 48 0 42 9 40 42 -8z m-730 -60 c-4 -80 -15 -100 -31 -56 -11 29 -39 40 -58 25 -9 -8 -17 -9 -24 -2 -6 6 13 28 53 61 35 28 63 52 63 52 0 0 -1 -36 -3 -80z m391 65 c5 -11 1 -12 -18 -5 -15 6 -27 6 -30 0 -4 -6 1 -10 9 -10 9 0 16 -5 16 -11 0 -6 -7 -9 -15 -5 -9 3 -15 0 -15 -9 0 -8 6 -15 14 -15 22 0 41 -29 28 -42 -7 -7 -15 -8 -19 -4 -4 4 -1 11 7 16 10 6 4 10 -22 15 l-35 7 11 39 c9 33 14 39 37 39 15 0 29 -7 32 -15z m75 -65 c12 0 13 -3 5 -11 -22 -22 -43 -2 -43 39 0 53 14 63 18 13 2 -30 8 -41 20 -41z m595 48 c24 -28 21 -65 -8 -93 -30 -30 -54 -31 -89 -4 -44 35 -31 102 24 122 23 8 53 -2 73 -25z m-918 -40 c24 -11 24 -12 9 -30 -19 -20 -5 -25 15 -5 10 10 11 8 5 -6 -5 -13 -13 -17 -29 -13 -17 4 -22 2 -21 -11 0 -8 -5 -18 -11 -20 -20 -7 -15 15 7 37 27 27 25 30 -10 30 -23 0 -33 -6 -42 -26 -11 -23 -10 -29 10 -45 13 -10 30 -15 37 -12 9 3 15 -1 15 -11 0 -21 -38 -21 -68 0 -44 31 -17 124 38 124 10 0 31 -5 45 -12z m390 -9 c-4 -6 0 -9 10 -7 10 2 20 -4 22 -12 3 -10 2 -11 -4 -3 -6 8 -14 6 -30 -7 -12 -9 -19 -21 -15 -24 3 -4 -1 -4 -11 0 -30 11 -17 31 17 25 5 -1 6 5 3 13 -3 8 -3 17 0 20 10 10 15 7 8 -5z m215 -29 c0 -6 -7 -13 -16 -17 -15 -6 -15 -38 2 -95 3 -12 0 -18 -10 -18 -8 0 -17 13 -21 33 -12 59 -16 67 -36 67 -33 0 -22 28 14 33 60 7 67 7 67 -3z m-415 -37 l-6 -25 36 28 c45 34 58 24 20 -16 l-28 -29 21 -34 20 -35 -24 -5 c-13 -2 -21 0 -18 4 3 5 -2 21 -10 36 l-14 28 -7 -27 c-4 -16 -13 -28 -20 -28 -9 0 -10 13 -3 58 12 75 16 85 29 77 6 -4 8 -18 4 -32z m195 -109 c0 -2 -7 -4 -15 -4 -8 0 -15 5 -15 10 0 6 -11 10 -24 10 -14 0 -28 -4 -31 -10 -3 -5 -12 -10 -20 -10 -10 0 -6 19 17 70 l31 71 29 -67 c15 -36 28 -68 28 -70z"/> <path d="M1382 2210 c-21 -26 -32 -49 -32 -70 0 -18 4 -29 10 -25 6 3 10 15 10 26 0 11 12 38 26 60 33 53 27 57 -14 9z"/> <path d="M1670 2372 c-13 -20 -29 -44 -35 -52 -9 -13 -8 -13 8 -1 9 7 17 10 17 6 0 -4 6 -2 13 4 8 6 16 9 18 7 2 -3 5 13 5 35 1 21 1 39 0 39 0 0 -12 -17 -26 -38z"/> <path d="M1677 2168 c-13 -18 -27 -40 -30 -49 -3 -10 -22 -22 -42 -29 -26 -9 -34 -15 -26 -23 7 -7 15 -6 26 3 12 10 21 10 43 1 24 -10 25 -10 9 3 -18 14 -17 15 4 40 22 25 53 86 44 86 -2 0 -15 -15 -28 -32z"/> <path d="M1051 2087 c-15 -15 -14 -24 4 -24 8 0 12 4 9 9 -8 13 21 9 34 -4 9 -9 15 -9 24 0 7 7 10 12 7 12 -2 0 -18 4 -36 9 -21 6 -35 5 -42 -2z"/> <path d="M800 2117 c39 -43 112 -97 131 -97 12 0 4 14 -9 16 -21 2 -71 41 -67 51 2 7 1 12 -3 12 -22 -4 -33 3 -29 15 3 8 -2 20 -11 28 -11 9 -14 10 -8 1 4 -7 3 -13 -1 -13 -5 0 -16 6 -23 13 -8 6 1 -5 20 -26z"/> <path d="M778 2099 c12 -14 22 -31 22 -38 0 -7 4 -10 9 -7 5 3 11 -1 15 -9 3 -8 12 -15 20 -15 7 0 16 -7 20 -15 3 -8 11 -15 18 -15 14 0 -54 73 -97 103 l-30 21 23 -25z"/> <path d="M1920 2154 c-14 -18 -30 -32 -37 -29 -6 2 -17 -3 -23 -11 -7 -8 -9 -14 -4 -14 5 -1 -6 -14 -25 -30 -19 -16 -32 -32 -30 -35 3 -2 21 9 40 25 53 46 56 35 5 -20 -45 -48 -56 -70 -36 -70 6 0 10 6 10 13 0 15 69 97 82 97 5 0 6 -5 2 -12 -4 -7 -3 -8 5 -4 6 4 9 11 6 16 -3 5 0 12 6 15 5 4 8 14 4 22 -3 9 2 24 11 34 9 10 14 22 13 28 -2 5 -15 -6 -29 -25z"/> <path d="M2108 1978 c-21 -12 -38 -26 -38 -30 0 -13 17 -9 30 7 7 9 20 13 29 10 8 -3 12 -3 8 1 -4 4 -2 13 4 21 15 18 11 16 -33 -9z"/> <path d="M2082 1924 c-18 -15 -32 -31 -32 -36 0 -5 7 -2 16 6 14 15 28 20 47 17 4 0 7 8 7 19 0 25 0 25 -38 -6z"/> <path d="M1088 1837 c-12 -12 -18 -13 -21 -4 -3 9 -7 9 -20 -1 -12 -10 -25 -11 -52 -3 -35 9 -37 9 -47 -20 -5 -16 -14 -29 -19 -29 -5 0 -9 -6 -9 -14 0 -23 -40 -66 -76 -81 -19 -8 -34 -20 -34 -28 0 -7 -11 -24 -25 -37 -25 -24 -33 -50 -15 -50 6 0 10 5 10 10 0 5 6 9 13 7 6 -1 11 4 9 12 -3 16 46 71 63 71 6 0 22 11 34 24 13 13 31 26 41 29 17 4 18 -4 17 -109 0 -62 -3 -118 -8 -125 -4 -7 0 -19 8 -28 11 -10 12 -16 4 -19 -7 -2 -11 -30 -11 -73 0 -40 4 -68 9 -65 5 4 12 0 14 -6 3 -7 6 -3 6 10 1 13 5 20 11 17 6 -3 10 -1 10 4 0 6 -4 11 -10 11 -5 0 -10 12 -9 28 l1 27 8 -25 8 -25 1 27 c1 14 -3 28 -8 30 -5 2 -12 24 -16 51 -6 39 -5 47 9 47 9 0 16 -8 16 -18 0 -10 5 -23 10 -28 6 -6 11 -36 11 -69 1 -44 -2 -61 -15 -70 -28 -21 -17 -25 19 -8 22 10 35 24 35 35 0 13 -4 17 -12 12 -10 -6 -10 -5 -1 7 12 15 13 18 13 54 0 14 5 25 10 25 7 0 10 -19 9 -45 -2 -33 2 -50 15 -63 18 -16 18 -14 13 61 -4 57 -2 77 7 77 9 0 12 -27 11 -100 -1 -99 -1 -100 19 -86 18 12 21 25 24 107 2 59 7 96 15 101 7 5 0 8 -19 8 -16 0 -35 -5 -42 -12 -6 -6 -14 -9 -17 -6 -9 8 7 98 17 98 6 0 8 -13 6 -30 -6 -37 17 -42 24 -5 3 14 2 25 -1 25 -10 0 -1 244 10 255 5 5 9 -33 9 -104 0 -62 3 -110 8 -107 4 2 6 38 5 80 -1 56 1 74 10 69 6 -4 20 -8 29 -8 10 -1 26 -11 37 -23 12 -14 25 -20 35 -16 17 7 17 29 0 29 -18 0 -94 38 -94 47 0 4 3 8 8 8 4 0 12 11 19 25 11 25 11 25 -25 21 -21 -3 -47 -5 -60 -5 -21 -1 -22 -5 -21 -53 2 -89 -4 -98 -10 -14 -6 75 -7 79 -23 63z m-55 -60 c-3 -5 1 -13 8 -18 11 -7 10 -9 -4 -9 -13 0 -16 -4 -9 -17 5 -10 8 -35 7 -55 0 -21 3 -38 9 -38 5 0 7 -2 4 -5 -3 -3 -13 -2 -22 1 -13 5 -15 9 -5 15 10 6 10 11 0 23 -11 13 -11 16 0 16 11 0 11 2 -1 10 -13 9 -13 10 0 11 10 0 11 2 2 6 -6 2 -10 8 -7 12 2 5 -1 16 -9 26 -11 15 -12 7 -9 -54 2 -57 0 -71 -12 -71 -12 0 -14 14 -11 72 3 59 1 68 -9 54 -10 -13 -14 -14 -18 -3 -6 15 12 42 33 49 20 7 61 -12 53 -25z m52 -53 c-2 -47 -6 -88 -8 -90 -2 -3 -10 3 -18 13 -9 11 -10 14 -1 9 6 -4 12 -3 12 3 0 5 -4 12 -10 16 -5 3 -6 15 0 29 4 13 6 42 3 65 -5 33 -3 41 10 41 14 0 16 -12 12 -86z m43 -84 c-1 -27 -5 -50 -8 -50 -10 0 -22 79 -15 91 14 22 24 5 23 -41z m-126 -49 c3 -20 0 -27 -8 -24 -13 5 -25 39 -16 47 12 13 20 5 24 -23z m33 9 c-2 -11 -1 -20 3 -20 4 0 8 -9 9 -19 1 -13 -4 -19 -16 -18 -15 1 -17 6 -10 29 4 15 5 28 3 28 -3 0 -2 5 1 10 10 16 14 12 10 -10z m50 -42 c-4 -59 -5 -63 -38 -79 l-34 -18 1 37 c1 20 4 36 9 35 4 -2 12 -3 18 -3 5 0 7 -5 3 -11 -4 -7 -1 -10 6 -7 18 6 24 56 10 73 -13 16 -5 35 15 35 10 0 12 -15 10 -62z m-85 -23 c0 -16 -6 -25 -15 -25 -9 0 -15 9 -15 25 0 16 6 25 15 25 9 0 15 -9 15 -25z"/> <path d="M1817 1765 c-31 -39 -21 -46 17 -12 16 13 23 27 18 34 -5 8 -16 2 -35 -22z"/> <path d="M1858 1756 c-9 -13 -30 -27 -48 -32 -29 -9 -30 -10 -11 -21 17 -11 19 -10 15 2 -4 10 0 15 14 15 28 0 70 36 57 49 -7 6 -16 2 -27 -13z"/> <path d="M1360 1731 c0 -24 -10 -27 -28 -9 -9 9 -11 -13 -10 -100 2 -69 7 -111 13 -109 6 2 10 15 10 28 0 13 4 30 9 38 7 10 5 12 -5 6 -11 -6 -12 -5 -1 6 15 16 16 33 1 23 -8 -5 -8 -1 0 13 7 14 7 23 -1 31 -7 7 -8 12 -2 12 5 0 3 4 -4 9 -11 7 -10 9 3 14 9 4 13 3 10 -2 -3 -5 -1 -12 5 -16 5 -3 10 1 10 9 0 9 7 16 16 16 10 0 14 5 10 16 -4 9 -2 13 5 8 7 -4 10 -1 7 7 -3 8 -14 15 -26 17 -17 3 -22 -2 -22 -17z"/> <path d="M1420 1488 c2 -321 2 -308 -11 -285 -6 9 -9 30 -8 45 1 15 1 43 0 62 l-2 35 -13 -25 c-10 -17 -11 -30 -5 -42 7 -12 6 -18 -2 -18 -8 0 -8 -4 -2 -12 5 -7 10 -24 11 -36 1 -18 -3 -22 -15 -18 -14 6 -14 4 -2 -11 13 -16 12 -17 -3 -4 -10 7 -18 18 -18 24 0 5 8 16 18 23 14 12 15 13 1 8 -10 -3 -20 -1 -24 5 -4 7 0 8 11 4 13 -5 15 -3 6 13 -5 10 -8 29 -6 42 3 14 0 21 -6 17 -6 -3 -7 1 -4 9 4 11 0 16 -15 16 -22 0 -22 -1 -24 172 0 31 -4 55 -9 52 -4 -3 -4 6 2 20 5 14 7 31 5 38 -10 26 -12 77 -3 82 4 2 3 3 -4 2 -7 -1 -15 -16 -16 -32 -2 -16 -8 -32 -14 -35 -14 -9 -11 -138 3 -156 10 -11 8 -12 -5 -7 -12 5 -15 2 -10 -10 3 -9 11 -13 18 -9 6 4 4 -1 -4 -11 -10 -12 -14 -39 -14 -78 1 -36 -3 -57 -9 -55 -6 2 -11 26 -11 54 -1 47 -9 73 -20 62 -6 -6 -12 -279 -6 -279 3 0 14 -18 24 -40 10 -22 22 -37 27 -35 4 3 5 -5 2 -16 -6 -21 -5 -21 21 -4 23 15 26 24 26 76 0 36 4 59 11 59 6 0 10 -15 9 -32 -3 -59 -1 -60 40 -27 22 18 37 36 33 42 -4 6 0 8 9 4 16 -6 58 30 58 50 0 5 20 23 45 38 l45 29 -2 100 c-1 56 -5 113 -9 129 -5 16 -4 25 2 22 16 -10 10 84 -7 110 -10 15 -12 25 -5 25 6 0 11 -5 11 -12 0 -9 3 -9 11 -1 22 22 -6 47 -55 49 -25 2 -55 8 -66 14 l-21 11 1 -253z m33 205 c-8 -3 -10 -11 -5 -21 5 -9 7 -53 7 -97 -2 -49 2 -83 9 -88 7 -6 5 -7 -5 -4 -12 4 -16 -1 -15 -21 1 -15 4 -31 8 -37 3 -5 5 -29 3 -52 -1 -27 1 -40 8 -36 6 3 7 1 3 -5 -4 -6 -13 -9 -21 -6 -12 5 -14 25 -11 102 2 54 6 109 9 125 2 15 1 27 -2 27 -4 0 -7 27 -7 60 0 48 3 60 16 59 10 0 11 -2 3 -6z m47 -28 c0 -16 -6 -25 -15 -25 -9 0 -15 9 -15 25 0 16 6 25 15 25 9 0 15 -9 15 -25z m5 -60 c0 -29 -20 -34 -28 -6 -5 21 0 31 17 31 6 0 11 -11 11 -25z m-8 -106 c-2 -67 4 -92 18 -69 9 15 25 12 25 -5 0 -9 -6 -12 -17 -8 -15 5 -14 2 4 -18 19 -21 20 -27 9 -48 -10 -17 -15 -20 -18 -10 -3 8 2 19 11 26 14 10 14 11 -4 10 -29 -3 -35 -17 -29 -69 4 -37 2 -48 -9 -48 -11 0 -13 26 -12 130 1 71 -2 127 -6 124 -5 -3 -7 2 -4 10 3 9 7 23 10 31 2 8 9 15 14 15 7 0 10 -28 8 -71z m-202 -121 c4 4 2 -3 -4 -15 -6 -13 -8 -23 -3 -23 5 0 9 -7 9 -15 0 -21 -16 -4 -22 23 -2 12 -7 28 -11 35 -6 9 -5 9 8 0 8 -7 18 -9 23 -5z m-35 -98 c0 -11 -7 -20 -15 -20 -8 0 -15 9 -15 20 0 11 7 20 15 20 8 0 15 -9 15 -20z m70 -40 c0 -22 -4 -40 -9 -40 -5 0 -9 18 -9 40 0 22 3 40 9 40 5 0 9 -18 9 -40z m-71 -7 c0 -10 -4 -27 -8 -38 -7 -17 -9 -16 -13 10 -4 17 -4 33 -1 37 8 15 23 8 22 -9z m27 -109 c-10 -21 -12 -21 -28 -7 -20 18 -24 53 -7 53 6 0 8 -9 3 -22 -6 -20 -5 -21 9 -10 8 7 13 22 10 35 -4 21 -4 21 10 -2 11 -18 11 -29 3 -47z"/> <path d="M1881 1726 c-7 -8 -22 -17 -34 -19 -16 -3 -14 -5 8 -5 38 -2 64 13 49 28 -8 8 -14 7 -23 -4z"/> <path d="M1225 1591 c3 -6 -3 -14 -12 -20 -10 -6 -12 -11 -5 -11 6 0 12 -5 12 -11 0 -5 -4 -8 -9 -5 -9 6 -6 -42 3 -52 11 -10 17 6 21 57 2 30 0 51 -6 51 -6 0 -8 -4 -4 -9z"/> <path d="M1578 1457 c1 -77 4 -143 7 -145 2 -3 16 3 30 12 22 14 25 24 25 71 0 54 -12 79 -24 49 -9 -24 -7 -31 4 -14 8 13 10 13 10 -1 0 -9 -9 -24 -19 -33 -19 -17 -19 -16 -11 18 4 20 5 36 1 36 -3 0 -5 24 -4 53 0 29 -4 62 -10 74 -10 17 -11 -8 -9 -120z"/> <path d="M770 1528 c0 -12 -5 -36 -12 -54 -10 -29 -9 -35 13 -62 13 -16 29 -37 34 -46 7 -13 10 8 10 73 0 84 -2 91 -22 100 -20 9 -23 8 -23 -11z"/> <path d="M1393 1485 c0 -38 2 -53 4 -32 2 20 2 52 0 70 -2 17 -4 1 -4 -38z"/> <path d="M1853 1480 c0 -41 2 -58 4 -37 2 20 2 54 0 75 -2 20 -4 3 -4 -38z"/> <path d="M716 1495 c-3 -8 -6 -101 -6 -207 -1 -250 -1 -238 9 -238 5 0 9 21 8 47 -1 32 2 48 12 51 11 4 13 -7 8 -57 -4 -52 -3 -60 9 -50 8 6 11 16 7 22 -3 5 -2 7 3 4 6 -3 9 -18 8 -34 -2 -42 -3 -45 -14 -38 -5 3 -10 2 -10 -4 0 -5 8 -12 18 -14 13 -4 11 -5 -5 -6 -18 -1 -22 -6 -19 -23 3 -13 5 -36 5 -52 1 -24 3 -27 16 -16 12 10 13 16 4 26 -6 8 -8 14 -5 14 4 0 2 9 -4 20 -7 14 -7 20 0 20 5 0 10 -6 10 -12 1 -33 18 22 20 62 4 105 0 151 -12 144 -9 -5 -9 -2 1 9 11 14 11 20 0 34 -12 15 -12 16 1 8 12 -7 13 -6 3 7 -7 8 -9 18 -5 22 14 14 8 66 -8 67 -10 0 -11 2 -2 6 16 6 15 21 -3 39 -13 14 -15 12 -15 -19 0 -20 6 -38 13 -40 6 -3 0 -6 -14 -6 -26 -1 -26 0 -25 62 1 48 5 61 16 59 10 -1 9 2 -3 12 -15 12 -18 23 -13 55 6 42 3 53 -8 26z m34 -240 c0 -9 6 -12 18 -9 14 5 14 3 -2 -10 -11 -9 -16 -16 -12 -16 4 0 4 -6 -1 -12 -4 -7 -6 -21 -4 -32 2 -11 -2 -17 -11 -14 -19 7 -22 108 -2 108 8 0 14 -7 14 -15z"/> <path d="M830 1426 c0 -76 3 -88 25 -113 l24 -28 1 113 0 112 -25 0 c-25 0 -25 -1 -25 -84z"/> <path d="M1790 1454 c0 -34 -4 -53 -10 -49 -15 9 -12 -4 4 -21 12 -12 15 -4 18 56 2 39 0 70 -4 70 -5 0 -8 -25 -8 -56z"/> <path d="M1325 1491 c-3 -5 -1 -12 5 -16 6 -4 7 -13 1 -23 -9 -18 -4 -42 9 -42 4 0 8 20 8 45 1 42 -9 58 -23 36z"/> <path d="M1820 1415 c0 -32 3 -56 6 -52 3 3 6 26 6 52 0 26 -3 49 -6 53 -3 3 -6 -21 -6 -53z"/> <path d="M680 1413 c0 -27 -2 -108 -4 -180 -3 -79 -1 -133 5 -133 5 0 9 75 9 180 0 99 -2 180 -5 180 -3 0 -5 -21 -5 -47z"/> <path d="M1910 1410 c0 -16 -4 -30 -10 -30 -5 0 -10 5 -10 11 0 5 -5 7 -10 4 -8 -5 -8 -11 0 -20 7 -9 8 -15 1 -19 -6 -4 -8 -13 -4 -21 8 -22 22 -18 16 5 -3 11 -1 20 4 20 12 0 13 -129 1 -136 -5 -3 -7 6 -4 20 3 15 1 24 -5 21 -5 -4 -7 -11 -4 -16 4 -5 2 -9 -2 -9 -5 0 -9 -10 -10 -22 0 -13 -1 -65 -2 -115 0 -51 -5 -93 -10 -93 -5 0 -7 57 -5 126 3 108 2 125 -10 115 -12 -10 -13 -8 -9 8 3 12 9 21 12 21 4 0 8 24 10 52 2 56 -7 62 -13 9 -2 -18 -9 -38 -15 -44 -6 -6 -11 -30 -11 -54 0 -24 -4 -43 -10 -43 -5 0 -10 11 -10 25 0 14 -9 34 -20 45 -11 11 -20 16 -20 11 0 -5 7 -14 15 -21 9 -8 16 -32 16 -64 1 -28 4 -41 6 -28 8 43 23 21 23 -34 0 -46 -3 -55 -15 -50 -13 5 -15 -9 -13 -87 1 -51 3 -75 5 -54 4 32 7 36 19 26 12 -9 14 -6 14 22 1 28 2 31 11 16 6 -9 15 -15 21 -11 6 4 8 -1 4 -14 -5 -14 -1 -25 13 -34 13 -9 19 -22 16 -36 -2 -12 0 -22 5 -22 5 0 7 -6 4 -13 -2 -7 2 -21 10 -32 13 -19 14 -18 9 8 -3 16 -1 27 6 27 6 0 11 -10 11 -22 0 -29 8 -19 12 15 3 16 11 32 18 37 8 5 11 12 7 17 -5 4 -12 1 -17 -7 -7 -10 -10 9 -11 60 -1 41 -3 67 -6 58 -2 -10 -9 -18 -15 -18 -5 0 -8 6 -5 14 3 8 0 22 -7 31 -11 15 -12 13 -10 -19 2 -20 0 -36 -4 -36 -4 0 -8 -12 -9 -27 -1 -19 1 -22 8 -12 6 9 9 10 9 2 0 -16 -13 -23 -28 -14 -8 5 -8 19 3 54 8 26 10 45 6 42 -5 -2 -8 7 -7 21 1 19 5 24 19 20 12 -3 17 2 16 17 0 12 -3 16 -6 10 -2 -7 -12 -13 -21 -13 -15 0 -15 2 -2 10 8 5 10 10 4 10 -6 0 -11 7 -11 15 0 8 4 12 9 9 4 -3 8 -1 8 5 0 5 -4 12 -10 16 -5 3 -7 12 -3 20 10 27 20 16 18 -20 -1 -19 2 -35 7 -35 9 0 9 1 10 147 1 81 3 100 14 96 8 -3 14 0 14 6 0 6 -6 10 -12 9 -8 -2 -13 7 -12 20 0 12 -3 22 -8 22 -4 0 -8 -13 -8 -30z m30 -450 c0 -27 0 -53 1 -57 0 -4 -4 -9 -9 -11 -10 -3 -22 105 -13 114 14 14 21 -2 21 -46z"/> <path d="M1976 1424 c11 -9 14 -13 7 -10 -6 4 -15 2 -18 -4 -4 -6 -1 -9 7 -8 8 2 13 -10 15 -36 4 -62 13 -55 13 10 0 54 -2 60 -21 61 -21 2 -21 1 -3 -13z"/> <path d="M890 1360 c0 -38 2 -70 4 -70 28 0 36 16 36 76 0 57 -2 64 -20 64 -18 0 -20 -7 -20 -70z"/> <path d="M1330 1378 c0 -16 5 -28 11 -28 5 0 7 5 4 10 -4 6 8 11 27 11 l33 2 -30 4 c-16 3 -33 10 -37 16 -5 7 -8 0 -8 -15z"/> <path d="M1667 1364 c-4 -4 -4 -18 -1 -30 5 -18 1 -26 -12 -31 -11 -3 -23 -13 -27 -20 -5 -7 -12 -11 -17 -8 -5 3 -2 -7 7 -23 10 -17 23 -28 30 -25 17 7 29 -25 14 -40 -8 -8 -15 -6 -26 9 -8 10 -15 14 -15 8 0 -6 -7 -11 -15 -11 -19 0 -19 7 2 22 13 9 13 14 3 20 -9 5 -11 4 -6 -3 4 -7 2 -12 -3 -12 -6 0 -11 12 -11 27 0 14 -3 24 -6 20 -4 -3 -6 -27 -6 -52 1 -32 -2 -45 -11 -42 -7 2 -12 23 -11 53 0 27 -1 37 -3 22 -2 -16 -9 -28 -14 -28 -6 0 -7 -4 -4 -10 3 -5 3 -16 -2 -22 -11 -19 -13 -39 -2 -33 5 4 6 -1 3 -9 -7 -18 -24 -11 -24 10 0 8 -5 14 -11 14 -5 0 -7 -4 -4 -10 3 -5 -3 -10 -14 -10 -11 0 -23 -5 -26 -11 -4 -6 -12 -8 -19 -6 -8 3 -12 -8 -13 -32 -1 -20 1 -29 3 -20 3 10 14 19 25 22 18 5 19 -1 21 -81 l2 -87 3 82 c2 47 -1 92 -7 103 -9 17 -8 20 12 20 18 0 23 -5 23 -23 -1 -13 -4 -28 -8 -34 -4 -7 -3 -14 3 -18 10 -6 15 13 11 49 -1 15 2 16 12 7 8 -6 17 -8 20 -4 4 3 7 -1 7 -10 0 -9 -4 -17 -10 -17 -5 0 -6 -7 -3 -17 4 -10 2 -14 -4 -10 -11 7 -9 -19 3 -62 6 -19 4 -23 -7 -17 -8 4 -5 0 5 -8 11 -9 15 -16 8 -16 -8 0 -9 -7 -3 -22 10 -28 4 -48 -15 -48 -12 0 -19 19 -15 43 0 4 -3 7 -9 7 -13 0 -1 -73 13 -82 14 -8 37 9 37 28 0 17 27 18 33 2 7 -16 9 35 8 179 0 104 8 139 24 113 4 -6 1 -18 -6 -26 -10 -12 -9 -17 3 -27 9 -7 18 -19 21 -27 4 -8 5 4 2 28 -3 35 0 42 14 42 9 0 27 14 40 31 20 27 20 30 4 27 -15 -3 -17 5 -17 70 0 39 0 72 -1 72 -1 0 -5 -3 -8 -6z m-1 -102 c1 -25 -11 -28 -31 -8 -10 10 -11 16 -2 25 16 16 32 8 33 -17z m-88 -167 c0 -54 -3 -64 -19 -68 -21 -6 -37 9 -17 16 9 2 12 23 11 65 -1 46 2 60 11 56 9 -3 14 -26 14 -69z m2 -100 c0 -16 -6 -25 -15 -25 -15 0 -21 31 -8 43 13 14 23 6 23 -18z m0 -60 c0 -26 -14 -33 -25 -15 -9 14 1 40 15 40 5 0 10 -11 10 -25z"/> <path d="M1941 1349 c0 -16 5 -29 14 -33 8 -3 15 -13 15 -21 0 -10 5 -13 12 -9 6 4 8 3 5 -4 -4 -5 -17 -8 -30 -5 -19 4 -20 3 -4 -7 9 -6 17 -19 18 -28 0 -14 2 -13 9 3 8 18 9 18 9 2 1 -10 -5 -20 -13 -23 -8 -3 -14 -14 -13 -24 1 -10 5 -16 9 -14 5 3 12 -5 17 -18 7 -17 10 -2 10 58 1 64 -2 83 -14 88 -8 3 -13 11 -11 18 1 7 1 10 -1 6 -9 -15 -22 -8 -26 15 -4 20 -4 19 -6 -4z"/> <path d="M2054 1288 c-11 -17 -6 -170 6 -182 7 -7 10 25 10 92 0 56 -2 102 -4 102 -3 0 -8 -5 -12 -12z"/> <path d="M635 1199 c5 -123 16 -127 14 -6 -1 53 -5 97 -10 97 -4 0 -6 -41 -4 -91z"/> <path d="M2080 1220 c0 -40 3 -70 7 -67 7 7 5 129 -3 136 -2 2 -4 -29 -4 -69z"/> <path d="M1765 1223 c4 -16 2 -23 -8 -23 -19 0 -49 -34 -40 -45 5 -4 3 -5 -4 -1 -13 7 -43 -41 -43 -70 0 -24 22 -84 31 -84 4 0 3 -16 -1 -34 -4 -19 -5 -37 -3 -40 3 -3 -12 -12 -33 -21 -59 -24 -76 -44 -72 -85 2 -28 -1 -37 -19 -45 -13 -6 -23 -19 -23 -31 0 -11 -18 -38 -40 -60 -22 -21 -40 -45 -40 -51 0 -13 -15 -16 -62 -13 -26 1 -28 -1 -28 -34 l0 -36 25 16 c14 9 25 20 25 25 0 5 10 9 23 9 12 0 29 9 37 19 7 11 17 18 21 15 5 -2 13 5 19 16 8 15 8 20 -1 20 -8 0 -8 4 1 15 11 13 15 13 23 3 6 -9 7 -8 3 5 -4 12 4 27 22 44 15 13 28 32 29 41 1 10 6 31 11 49 6 17 8 34 6 36 -3 3 8 9 25 15 16 6 32 8 35 5 3 -4 6 0 6 8 0 12 2 11 11 -1 9 -13 10 -12 5 2 -3 10 -1 20 5 23 5 4 8 14 7 22 -4 24 18 27 41 4 19 -19 20 -19 18 0 -1 10 -7 19 -14 19 -7 0 -13 7 -13 15 0 8 4 15 9 15 5 0 12 7 15 16 5 14 4 15 -9 4 -13 -11 -15 -8 -15 20 0 19 7 38 18 46 16 13 16 14 0 8 -13 -4 -18 -1 -18 11 0 12 5 15 18 11 16 -6 16 -5 0 8 -10 7 -18 21 -18 31 0 13 3 15 13 7 16 -13 22 52 7 76 -9 14 -10 13 -5 -5z m-51 -105 c-5 -7 -2 -9 8 -5 17 6 19 -16 3 -30 -4 -4 -5 -2 -1 5 4 6 2 12 -3 12 -6 0 -11 -21 -11 -47 -1 -33 -3 -43 -10 -33 -7 13 -7 52 -1 113 1 5 6 5 11 2 6 -4 7 -11 4 -17z"/> <path d="M805 1039 c0 -76 3 -139 8 -139 4 0 7 60 7 134 0 74 -3 137 -7 139 -5 3 -8 -57 -8 -134z"/> <path d="M1399 1125 c-1 -3 -3 -9 -4 -15 -1 -5 -3 -19 -4 -31 0 -11 -6 -17 -11 -14 -6 4 -7 11 -4 17 5 7 2 8 -5 4 -9 -6 -9 -12 3 -25 13 -14 13 -20 3 -30 -9 -10 -8 -11 6 -6 9 4 17 15 18 24 0 9 2 31 3 49 2 27 -1 44 -5 27z"/> <path d="M1965 1028 c-3 -18 -2 -44 4 -58 9 -22 10 -20 7 15 -4 50 3 73 16 53 8 -10 9 -10 6 1 -8 28 -27 22 -33 -11z"/> <path d="M712 1016 c-7 -16 -8 -36 -2 -55 4 -16 6 -32 2 -35 -3 -3 -1 -6 5 -6 7 0 11 24 10 60 0 33 -1 60 -2 60 -1 0 -7 -11 -13 -24z"/> <path d="M830 997 c0 -26 4 -47 9 -47 10 0 6 78 -4 88 -3 3 -5 -16 -5 -41z"/> <path d="M1239 1028 c0 -2 -2 -12 -3 -23 -3 -26 -25 -66 -26 -46 0 8 -3 11 -6 8 -4 -4 -8 -39 -9 -79 -2 -61 0 -69 11 -54 7 10 10 25 7 34 -5 15 -4 16 11 1 9 -8 18 -30 21 -48 7 -54 16 -91 24 -91 7 0 31 -59 31 -76 0 -5 -5 -2 -10 6 -7 11 -10 12 -10 2 0 -16 24 -42 39 -42 18 0 12 28 -19 90 -16 33 -30 72 -30 87 0 15 -10 47 -22 70 -23 44 -23 49 9 146 3 9 0 17 -6 17 -6 0 -11 -1 -12 -2z"/> <path d="M1423 945 c0 -50 3 -71 8 -55 4 16 7 19 8 8 1 -10 6 -18 11 -18 6 0 10 -9 10 -19 0 -11 5 -23 10 -26 12 -7 12 2 1 30 -5 12 -4 26 3 35 10 13 9 13 -6 1 -16 -12 -18 -11 -20 5 -2 34 -3 39 -11 52 -5 6 -6 15 -4 20 3 4 1 16 -3 27 -4 11 -7 -14 -7 -60z"/> <path d="M1377 931 c15 -35 20 -112 9 -130 -4 -5 -2 -12 4 -16 6 -4 8 -10 6 -14 -3 -4 -7 -19 -10 -34 -4 -25 -3 -27 21 -21 25 7 26 6 20 -27 -5 -24 -4 -30 3 -19 16 25 11 52 -10 57 -11 3 -20 14 -20 24 0 20 33 43 45 31 5 -4 5 -2 2 5 -4 6 -15 9 -26 6 -16 -4 -18 2 -17 68 1 51 -3 74 -12 77 -10 3 -8 7 5 17 16 12 16 13 -8 12 -25 -2 -26 -3 -12 -36z"/> <path d="M1725 920 c0 -16 3 -30 7 -30 10 0 20 38 13 50 -12 19 -20 10 -20 -20z"/> <path d="M832 838 c-1 -29 1 -58 6 -65 4 -6 8 17 8 53 1 76 -12 87 -14 12z"/> <path d="M1834 868 c-4 -6 -9 -45 -11 -87 -2 -56 -1 -70 6 -54 6 13 10 42 9 66 0 24 3 53 6 65 8 24 2 29 -10 10z"/> <path d="M1157 780 c-3 -11 0 -20 6 -20 7 0 5 -5 -3 -10 -8 -5 -10 -10 -4 -10 6 0 11 -24 11 -61 0 -46 -3 -59 -13 -55 -11 4 -11 2 -2 -14 7 -10 15 -17 19 -14 10 6 10 204 0 204 -5 0 -11 -9 -14 -20z"/> <path d="M1770 789 c0 -5 5 -7 10 -4 6 3 10 -3 10 -14 0 -12 -4 -21 -10 -21 -5 0 -10 -16 -10 -35 0 -26 3 -33 15 -29 11 5 15 21 15 60 0 41 -4 54 -15 54 -8 0 -15 -5 -15 -11z"/> <path d="M1735 757 c7 -35 -3 -70 -17 -61 -7 4 -8 2 -4 -5 4 -6 12 -8 18 -5 7 5 9 1 5 -9 -3 -9 -3 -19 2 -21 12 -8 13 97 0 114 -8 12 -9 9 -4 -13z"/> <path d="M1051 661 c-1 -36 2 -52 9 -45 6 6 6 26 1 54 l-9 45 -1 -54z"/> <path d="M1195 649 c0 -27 3 -49 8 -49 9 0 9 87 -1 93 -4 3 -7 -17 -7 -44z"/> <path d="M1333 603 c10 -3 17 -14 17 -29 0 -13 5 -24 10 -24 6 0 10 14 10 30 0 26 -3 30 -27 29 -17 -1 -21 -3 -10 -6z"/> <path d="M539 1797 c13 -14 36 -29 52 -32 16 -4 29 -10 29 -15 0 -5 9 -8 21 -7 21 1 21 1 -1 19 -12 10 -30 18 -39 18 -9 0 -32 10 -51 21 l-35 21 24 -25z"/> <path d="M2155 1820 c-97 -25 -118 -60 -31 -50 10 1 33 15 50 31 32 30 31 32 -19 19z"/> <path d="M1988 1763 c26 -11 37 -11 48 -2 12 10 13 9 8 -6 -5 -13 -3 -16 7 -13 8 3 14 11 14 18 0 9 -17 14 -55 15 l-55 2 33 -14z"/> <path d="M533 1667 c28 -27 47 -34 47 -19 0 7 -21 20 -65 41 -5 2 3 -8 18 -22z"/> <path d="M413 1384 c22 -20 43 -32 49 -28 9 6 9 9 0 12 -7 2 -12 8 -12 13 0 6 8 5 20 -1 11 -6 25 -8 30 -5 18 11 2 22 -27 20 -15 -1 -38 4 -50 11 -42 26 -48 13 -10 -22z"/> <path d="M2265 1394 c-53 -36 -58 -41 -40 -41 8 0 15 4 15 9 0 5 4 7 10 3 5 -3 24 8 42 24 41 38 26 40 -27 5z"/> <path d="M1713 527 c15 -13 27 -30 27 -38 0 -22 36 -54 45 -40 3 6 3 11 -2 11 -4 0 -16 20 -26 45 -16 38 -23 45 -45 45 l-27 -1 28 -22z"/> <path d="M1656 508 c5 -22 3 -28 -10 -28 -9 0 -16 -5 -16 -11 0 -6 7 -9 15 -5 18 7 21 -20 3 -28 -7 -3 -3 -3 10 0 13 3 31 0 40 -8 15 -11 15 -11 6 2 -19 25 -26 71 -13 86 7 9 8 14 1 14 -6 0 -14 -5 -18 -11 -4 -8 -9 -7 -16 2 -5 9 -6 4 -2 -13z"/> <path d="M1840 416 c-28 -35 11 -93 48 -70 35 22 22 84 -18 84 -10 0 -23 -7 -30 -14z"/> <path d="M1005 2390 c4 -14 12 -28 18 -31 5 -4 7 -11 4 -16 -3 -5 3 -9 13 -9 11 0 16 4 11 11 -4 5 -18 24 -30 40 -22 28 -23 29 -16 5z"/> <path d="M1550 2253 c0 -6 -18 -38 -40 -71 -48 -71 -54 -95 -8 -31 18 24 37 47 43 51 5 4 6 8 2 8 -4 0 -3 9 3 21 7 11 9 23 6 27 -3 3 -6 1 -6 -5z"/> <path d="M2187 2112 c1 -3 -5 -11 -13 -19 -8 -8 -11 -20 -7 -26 5 -8 9 -6 11 6 2 9 6 17 9 17 3 0 12 -8 19 -17 7 -10 14 -13 14 -7 0 7 -8 20 -17 31 -10 10 -17 17 -16 15z"/> <path d="M2313 1653 c-6 -2 -9 -13 -6 -24 5 -20 6 -19 20 1 8 12 21 19 29 16 7 -3 16 -1 19 5 6 9 -37 10 -62 2z"/> <path d="M2210 1560 c0 -5 1 -10 3 -10 1 -1 20 -3 42 -5 l40 -5 -30 15 c-36 17 -55 19 -55 5z"/> <path d="M388 927 c24 -7 36 -7 44 1 9 9 1 12 -32 11 l-45 -1 33 -11z"/> <path d="M805 599 c-4 -6 -5 -11 -4 -13 57 -41 72 -48 79 -35 6 9 -2 20 -25 36 -39 26 -41 27 -50 12z"/> </g> </svg>